<svg width="36" height="36" viewBox="0 0 36 36" fill="none" xmlns="http://www.w3.org/2000/svg">
<g clip-path="url(#clip0_0:1694)">
<path d="M4.51409 8.99612V31.4702C4.52278 31.4796 4.52643 31.4842 4.53067 31.4881C4.5349 31.492 4.53972 31.4984 4.54427 31.4984C11.9823 31.5022 19.4203 31.5055 26.8583 31.5085C26.8988 31.5085 26.9393 31.5033 26.9996 31.4992C27.0026 31.4277 27.0079 31.3595 27.0079 31.2914C27.0084 29.4544 27.0085 27.6174 27.0083 25.7804C27.0083 22.913 27.0074 20.0456 27.0056 17.1782C27.0019 17.1092 27.0132 17.0403 27.0389 16.9762C27.0645 16.9121 27.1039 16.8544 27.1542 16.8071C28.5517 15.4159 29.9463 14.0218 31.3379 12.6247C31.3828 12.5797 31.4297 12.5367 31.4939 12.4753V36.0001H0.0379162C0.00130014 35.8741 -0.0171187 4.98422 0.0214653 4.51025H23.5269C23.4767 4.56467 23.436 4.61198 23.392 4.65601C21.9899 6.05923 20.5884 7.46294 19.1873 8.86716C19.146 8.91132 19.0957 8.94594 19.0397 8.96862C18.9837 8.9913 18.9235 9.00148 18.8631 8.99846C14.1612 8.99566 9.45924 8.99488 4.75729 8.99612H4.51409Z" fill="#08C3A8"/>
<path d="M9.56876 26.4435C9.6597 26.0781 9.74306 25.7426 9.82674 25.4071C10.2549 23.6906 10.6825 21.974 11.1095 20.2572C11.139 20.1381 11.202 20.0298 11.2911 19.9453C14.9454 16.2915 18.5987 12.6367 22.2511 8.98091C23.8154 7.41561 25.3795 5.85022 26.9436 4.28473C26.9768 4.25155 27.0113 4.21978 27.0287 4.20312C28.6171 5.79371 30.2063 7.38508 31.7962 8.97724C31.7867 8.98755 31.7528 9.02694 31.7161 9.06361C26.4988 14.2839 21.2817 19.5044 16.0648 24.7253C15.9802 24.8138 15.8719 24.8761 15.7528 24.905C13.7347 25.406 11.7171 25.9095 9.70009 26.4153C9.66716 26.4235 9.6337 26.4296 9.56876 26.4435Z" fill="#08C3A8"/>
<path d="M33.4378 7.3323C31.8501 5.74385 30.262 4.15496 28.6735 2.56562C28.6925 2.54349 28.7194 2.50792 28.7507 2.47665C29.2285 1.99798 29.7092 1.5221 30.1846 1.04105C30.7225 0.496801 31.3617 0.147835 32.1212 0.0397527C33.13 -0.103801 34.0405 0.139199 34.8146 0.805282C35.7065 1.57266 36.0898 2.56369 35.9824 3.73094C35.9111 4.50577 35.5859 5.17739 35.0399 5.73397C34.525 6.25878 34.002 6.7756 33.4823 7.29566C33.4682 7.30875 33.4534 7.32099 33.4378 7.3323Z" fill="#08C3A8"/>
</g>
<defs>
<clipPath id="clip0_0:1694">
<rect width="36" height="36" fill="white"/>
</clipPath>
</defs>
</svg>
